<svg width="15518" height="6996" viewBox="0 0 15518 6996" fill="none" xmlns="http://www.w3.org/2000/svg">
<rect width="15518" height="6996" fill="white"/>
<rect width="15518" height="6996" stroke="black"/>
<path d="M2799 973L3171.5 987L3522.5 1018.5L3882 1080L4414 1204.5L4676.5 1281L4942 1376V4488L4920.5 4568L4876 4665L4815.5 4802L4737.5 4902.5L4579.5 5115L4278 5425.5L3998 5673.5L3467.5 6129.5L2799 6655.5V973Z" fill="#2A6692"/>
<path d="M2799 973L2426.5 987L2075.5 1018.5L1716 1080L1184 1204.5L921.5 1281L656 1376V4488L677.5 4568L722 4665L782.5 4802L860.5 4902.5L1018.5 5115L1320 5425.5L1600 5673.5L2130.5 6129.5L2799 6655.5V973Z" fill="#0D78B9"/>
<path fill-rule="evenodd" clip-rule="evenodd" d="M1046 1686H1751L2798.5 2666.5L3846 1686H4551V4071L4538.5 4206.5L4514 4393L4470.12 4568.02C4469.71 4569.67 4469.15 4571.28 4468.45 4572.83L4415 4692L4337.5 4821.5L4187 5008L4022.5 5189L3846 5369V2755L3104.5 3384.5V4473H2460.5V3384.5L1751 2755V5369L1574.5 5189L1410 5008L1259.5 4821.5L1182 4692L1128.55 4572.83C1127.85 4571.28 1127.29 4569.67 1126.88 4568.02L1083 4393L1058.5 4206.5L1046 4071V1686Z" fill="white"/>
<path d="M6389.06 4142L5976.64 3043.37H5969.62C5971.96 3066.77 5973.71 3096.6 5974.88 3132.87C5977.22 3169.14 5978.98 3208.92 5980.15 3252.21C5981.32 3294.33 5981.9 3337.62 5981.9 3382.08V4142H5836.24V2888.93H6069.65L6455.75 3915.6H6462.77L6855.89 2888.93H7087.55V4142H6931.36V3371.55C6931.36 3330.6 6931.94 3290.24 6933.11 3250.46C6934.28 3209.51 6936.04 3171.48 6938.38 3136.38C6940.72 3100.11 6942.47 3069.69 6943.64 3045.12H6936.62L6518.93 4142H6389.06ZM7823.29 3183.77C7904.02 3183.77 7973.05 3201.32 8030.38 3236.42C8088.88 3271.52 8133.34 3321.24 8163.76 3385.59C8195.35 3448.77 8211.15 3523.07 8211.15 3608.48V3701.49H7567.06C7569.4 3807.96 7596.31 3889.28 7647.79 3945.44C7700.44 4000.43 7773.57 4027.92 7867.17 4027.92C7926.84 4027.92 7979.49 4022.66 8025.12 4012.13C8071.92 4000.43 8119.89 3984.05 8169.03 3962.99V4098.12C8121.06 4119.18 8073.67 4134.39 8026.87 4143.76C7980.07 4154.29 7924.5 4159.55 7860.15 4159.55C7771.23 4159.55 7692.25 4141.41 7623.22 4105.14C7555.36 4068.87 7502.13 4015.05 7463.52 3943.68C7426.08 3871.14 7407.36 3782.81 7407.36 3678.68C7407.36 3575.72 7424.32 3487.38 7458.25 3413.67C7493.35 3339.96 7541.91 3283.22 7603.92 3243.44C7667.1 3203.66 7740.22 3183.77 7823.29 3183.77ZM7821.54 3310.13C7747.83 3310.13 7689.33 3334.11 7646.04 3382.08C7603.92 3428.88 7578.76 3494.4 7570.57 3578.64H8049.69C8049.69 3524.82 8041.5 3478.02 8025.12 3438.24C8008.74 3398.46 7983.58 3367.46 7949.65 3345.23C7916.89 3321.83 7874.19 3310.13 7821.54 3310.13ZM8817.42 4033.19C8840.82 4033.19 8864.8 4031.43 8889.37 4027.92C8913.94 4023.24 8933.83 4018.56 8949.04 4013.88V4131.47C8932.66 4139.66 8909.26 4146.1 8878.84 4150.78C8848.42 4156.63 8819.17 4159.55 8791.09 4159.55C8741.95 4159.55 8696.32 4151.36 8654.2 4134.98C8613.25 4117.43 8579.91 4087.59 8554.17 4045.47C8528.43 4003.35 8515.56 3944.27 8515.56 3868.22V3320.66H8382.18V3246.95L8517.31 3185.52L8578.74 2985.45H8670V3201.32H8942.02V3320.66H8670V3864.71C8670 3922.04 8683.45 3964.74 8710.36 3992.82C8738.44 4019.73 8774.13 4033.19 8817.42 4033.19ZM9546.32 3185.52C9660.98 3185.52 9745.8 3210.68 9800.79 3260.99C9855.78 3311.3 9883.28 3391.44 9883.28 3501.42V4142H9770.96L9741.12 4008.62H9734.1C9707.19 4042.55 9679.11 4071.21 9649.86 4094.61C9621.78 4116.84 9589.02 4133.22 9551.58 4143.76C9515.31 4154.29 9470.85 4159.55 9418.2 4159.55C9362.04 4159.55 9311.15 4149.61 9265.52 4129.71C9221.06 4109.82 9185.96 4079.4 9160.22 4038.45C9134.48 3996.33 9121.61 3943.68 9121.61 3880.5C9121.61 3786.9 9158.46 3714.95 9232.17 3664.64C9305.88 3613.16 9419.37 3585.08 9572.64 3580.4L9732.35 3575.13V3518.97C9732.35 3440.58 9715.38 3386.18 9681.45 3355.76C9647.52 3325.34 9599.55 3310.13 9537.54 3310.13C9488.4 3310.13 9441.6 3317.73 9397.14 3332.94C9352.68 3346.98 9311.15 3363.36 9272.54 3382.08L9225.15 3266.25C9266.1 3244.02 9314.66 3225.3 9370.82 3210.09C9426.98 3193.71 9485.48 3185.52 9546.32 3185.52ZM9591.95 3687.45C9474.95 3692.13 9393.63 3710.85 9348 3743.61C9303.54 3776.37 9281.31 3822.59 9281.31 3882.26C9281.31 3934.91 9297.11 3973.52 9328.7 3998.09C9361.46 4022.66 9402.99 4034.94 9453.3 4034.94C9532.86 4034.94 9598.97 4013.3 9651.62 3970.01C9704.27 3925.55 9730.59 3857.69 9730.59 3766.43V3682.19L9591.95 3687.45ZM10839 3882.26C10839 3943.1 10823.7 3993.99 10793.3 4034.94C10762.9 4075.89 10719.6 4106.9 10663.5 4127.96C10607.3 4149.02 10540.6 4159.55 10463.4 4159.55C10397.9 4159.55 10341.1 4154.29 10293.2 4143.76C10246.4 4133.22 10204.8 4118.6 10168.5 4099.88V3959.48C10206 3978.2 10251 3995.75 10303.7 4012.13C10357.5 4027.34 10411.9 4034.94 10466.9 4034.94C10545.3 4034.94 10602 4022.66 10637.1 3998.09C10672.2 3972.35 10689.8 3938.42 10689.8 3896.3C10689.8 3872.9 10683.3 3851.84 10670.5 3833.12C10657.6 3814.4 10634.2 3795.68 10600.3 3776.96C10567.5 3758.24 10520.1 3737.18 10458.1 3713.78C10397.3 3690.38 10345.2 3666.98 10301.9 3643.58C10258.6 3620.18 10225.3 3592.1 10201.9 3559.34C10178.5 3526.58 10166.8 3484.46 10166.8 3432.98C10166.8 3353.42 10199 3291.99 10263.3 3248.7C10328.8 3205.41 10414.2 3183.77 10519.5 3183.77C10576.9 3183.77 10630.1 3189.62 10679.3 3201.32C10729.6 3211.85 10776.4 3227.06 10819.7 3246.95L10767 3369.8C10741.3 3358.1 10713.8 3348.15 10684.5 3339.96C10656.4 3330.6 10627.8 3323.58 10598.5 3318.9C10569.3 3313.05 10539.4 3310.13 10509 3310.13C10445.8 3310.13 10397.3 3320.66 10363.4 3341.72C10330.6 3361.61 10314.2 3389.1 10314.2 3424.2C10314.2 3449.94 10321.8 3472.17 10337 3490.89C10352.2 3508.44 10377.4 3525.99 10412.5 3543.54C10448.8 3559.92 10496.7 3579.81 10556.4 3603.21C10616.1 3625.44 10667 3648.26 10709.1 3671.66C10751.2 3695.06 10783.4 3723.72 10805.6 3757.65C10827.8 3790.41 10839 3831.95 10839 3882.26ZM11566.4 3183.77C11682.3 3183.77 11775.3 3224.13 11845.5 3304.86C11916.8 3385.59 11952.5 3507.27 11952.5 3669.9C11952.5 3776.37 11936.2 3866.46 11903.4 3940.17C11871.8 4012.71 11826.8 4067.7 11768.3 4105.14C11710.9 4141.41 11643.1 4159.55 11564.7 4159.55C11516.7 4159.55 11474 4153.12 11436.6 4140.24C11399.1 4127.37 11366.9 4110.99 11340 4091.1C11314.3 4070.04 11292.1 4047.23 11273.3 4022.66H11262.8C11265.2 4042.55 11267.5 4067.7 11269.8 4098.12C11272.2 4128.54 11273.3 4154.87 11273.3 4177.1V4563.2H11118.9V3201.32H11245.3L11266.3 3329.43H11273.3C11292.1 3302.52 11314.3 3277.95 11340 3255.73C11366.9 3233.49 11398.5 3215.94 11434.8 3203.07C11472.2 3190.2 11516.1 3183.77 11566.4 3183.77ZM11538.4 3313.64C11475.2 3313.64 11424.3 3325.92 11385.7 3350.49C11347.1 3373.89 11319 3409.58 11301.4 3457.55C11283.9 3505.52 11274.5 3566.36 11273.3 3640.07V3669.9C11273.3 3747.12 11281.5 3812.64 11297.9 3866.46C11314.3 3920.28 11341.8 3961.23 11380.4 3989.31C11420.2 4017.39 11474 4031.43 11541.9 4031.43C11599.2 4031.43 11646 4015.64 11682.3 3984.05C11719.7 3952.46 11747.2 3909.75 11764.7 3855.93C11783.5 3800.94 11792.8 3738.35 11792.8 3668.15C11792.8 3560.51 11771.8 3474.51 11729.6 3410.16C11688.7 3345.81 11624.9 3313.64 11538.4 3313.64ZM12405.7 4142H12251.3V2808.2H12405.7V4142ZM13574.2 3669.9C13574.2 3748.29 13563.7 3817.91 13542.6 3878.75C13522.8 3938.42 13493.5 3989.31 13454.9 4031.43C13417.5 4073.55 13371.2 4105.73 13316.3 4127.96C13262.4 4149.02 13202.2 4159.55 13135.5 4159.55C13073.5 4159.55 13016.1 4149.02 12963.5 4127.96C12910.8 4105.73 12865.2 4073.55 12826.6 4031.43C12788 3989.31 12757.6 3938.42 12735.3 3878.75C12714.3 3817.91 12703.8 3748.29 12703.8 3669.9C12703.8 3565.77 12721.3 3478.02 12756.4 3406.65C12791.5 3334.11 12841.8 3279.12 12907.3 3241.68C12972.9 3203.07 13050.7 3183.77 13140.8 3183.77C13226.2 3183.77 13301 3203.07 13365.4 3241.68C13430.9 3279.12 13481.8 3334.11 13518.1 3406.65C13555.5 3478.02 13574.2 3565.77 13574.2 3669.9ZM12863.5 3669.9C12863.5 3743.61 12872.8 3807.96 12891.5 3862.95C12911.4 3916.77 12941.9 3958.31 12982.8 3987.56C13023.8 4016.81 13075.8 4031.43 13139 4031.43C13202.2 4031.43 13254.2 4016.81 13295.2 3987.56C13336.1 3958.31 13366 3916.77 13384.7 3862.95C13404.6 3807.96 13414.5 3743.61 13414.5 3669.9C13414.5 3595.02 13404.6 3531.26 13384.7 3478.61C13364.8 3425.96 13334.4 3385.59 13293.4 3357.51C13253.7 3328.26 13201.6 3313.64 13137.2 3313.64C13041.3 3313.64 12971.7 3345.23 12928.4 3408.41C12885.1 3471.59 12863.5 3558.75 12863.5 3669.9ZM14026.1 3201.32V4142H13871.7V3201.32H14026.1ZM13950.6 2848.56C13974 2848.56 13994.5 2856.75 14012.1 2873.13C14030.8 2888.34 14040.1 2912.91 14040.1 2946.84C14040.1 2979.6 14030.8 3004.17 14012.1 3020.55C13994.5 3036.93 13974 3045.12 13950.6 3045.12C13924.9 3045.12 13903.2 3036.93 13885.7 3020.55C13868.1 3004.17 13859.4 2979.6 13859.4 2946.84C13859.4 2912.91 13868.1 2888.34 13885.7 2873.13C13903.2 2856.75 13924.9 2848.56 13950.6 2848.56ZM14690.9 4033.19C14714.3 4033.19 14738.3 4031.43 14762.9 4027.92C14787.4 4023.24 14807.3 4018.56 14822.5 4013.88V4131.47C14806.2 4139.66 14782.8 4146.1 14752.3 4150.78C14721.9 4156.63 14692.7 4159.55 14664.6 4159.55C14615.4 4159.55 14569.8 4151.36 14527.7 4134.98C14486.7 4117.43 14453.4 4087.59 14427.7 4045.47C14401.9 4003.35 14389 3944.27 14389 3868.22V3320.66H14255.7V3246.95L14390.8 3185.52L14452.2 2985.45H14543.5V3201.32H14815.5V3320.66H14543.5V3864.71C14543.5 3922.04 14556.9 3964.74 14583.9 3992.82C14611.9 4019.73 14647.6 4033.19 14690.9 4033.19Z" fill="black"/>
</svg>
